<svg xmlns="http://www.w3.org/2000/svg" viewBox="0 0 387.24 38">
  <path fill="#231f20" d="M13.11 0 0 37.55h8.34L12.03 27l31.71.04 3.66 10.57h8.34L42.73.04 13.12 0Zm1.58 19.37 4.1-11.73 18.24.02L41.1 19.4l-26.4-.03ZM158.62.18l-49.9-.06v7.63l21.12.03-.04 29.93h7.64l.04-29.92 21.13.03V.18Zm48.2.36L176.89.5h-.02c-4.92 0-9.56 1.92-13.05 5.41-3.5 3.49-5.43 8.13-5.44 13.06 0 4.93 1.91 9.57 5.41 13.08 3.49 3.5 8.13 5.43 13.06 5.44l29.93.04h.02c10.19 0 18.48-8.28 18.49-18.47 0-4.93-1.91-9.57-5.41-13.08-3.49-3.5-8.13-5.43-13.06-5.44Zm0 7.05h.18l-14.9 8.11-14.9-8.16 29.62.04Zm-37.11 20.32c-.32-.26-.64-.54-.93-.84-2.16-2.17-3.35-5.04-3.34-8.09 0-3.58 1.66-6.77 4.24-8.87l16.31 8.93-16.28 8.86Zm37.1 2.57h-.01l-29.48-.04 14.78-8.05 14.76 8.08h-.05Zm7.35-2.69-15.95-8.73 16.01-8.72c.23.2.46.4.68.62 2.16 2.17 3.35 5.04 3.34 8.09 0 3.51-1.6 6.65-4.09 8.74ZM96.92 19.04c0 6.15-5.01 11.14-11.15 11.14h-.01l-10.02-.04c-2.97 0-5.77-1.17-7.88-3.28-2.11-2.11-3.26-4.91-3.26-7.88V.05h-7.64v18.91c0 5.01 1.94 9.73 5.49 13.28 3.55 3.56 8.26 5.52 13.27 5.52l10.02.04h.02c10.35 0 18.77-8.41 18.78-18.76V.05H96.9v18.99Zm183.44-.53-.37-.37.42-.49c1.41-1.89 2.16-4.12 2.16-6.46 0-2.9-1.12-5.62-3.18-7.68-2.05-2.06-4.78-3.19-7.67-3.19L231.51.27l-.05 37.57 39.91.05h.01c3.13 0 6.07-1.22 8.29-3.43 2.22-2.22 3.45-5.16 3.45-8.29 0-2.43-.75-4.78-2.17-6.78l-.62-.87Zm-8.96 11.75-32.28-.04v-8.21l32.29.04c1.1 0 2.13.43 2.9 1.21s1.2 1.81 1.2 2.9c0 2.26-1.84 4.1-4.11 4.1Zm3.81-17.67c-.55 1.33-1.92 2.15-3.36 2.15l-32.74-.05V7.33l32.75.05c2.52 0 4.46 2.56 3.36 5.21ZM299.2.35 286.09 37.9h8.34l3.69-10.55 31.71.04 3.66 10.57h8.34L328.81.39 299.2.35Zm1.58 19.37 4.1-11.73 18.24.02 4.07 11.74-26.4-.03ZM337.34.39v7.64l21.12.03-.04 29.93h7.64l.04-29.92 21.13.03V.45L337.34.39Z"/>
</svg>
